<svg xmlns="http://www.w3.org/2000/svg" width="117.429" height="150.866" viewBox="0 0 117.429 150.866" fill="rgb(35,79,71)">
  <path d="M 58.715 0 C 91.142 0 117.429 26.288 117.429 58.715 L 117.429 92.151 C 117.429 124.578 91.142 150.866 58.715 150.866 C 26.288 150.866 0 124.578 0 92.151 L 0 58.714 C 0 26.287 26.288 0 58.715 0 Z M 52.624 126.962 C 52.02 126.869 51.43 126.896 50.859 127.046 C 50.288 127.193 49.808 127.458 49.411 127.834 C 49.018 128.21 48.774 128.693 48.684 129.285 C 48.596 129.874 48.641 130.383 48.821 130.813 C 49.002 131.245 49.264 131.612 49.606 131.922 C 49.952 132.231 50.328 132.502 50.736 132.733 C 51.151 132.965 51.479 133.169 51.723 133.344 C 51.966 133.518 52.134 133.68 52.23 133.83 C 52.327 133.983 52.36 134.143 52.336 134.309 C 52.303 134.537 52.182 134.702 51.975 134.801 C 51.767 134.9 51.473 134.921 51.088 134.864 C 50.833 134.828 50.571 134.75 50.301 134.63 C 50.03 134.513 49.774 134.378 49.537 134.228 C 49.3 134.077 49.095 133.939 48.93 133.81 C 48.765 133.681 48.657 133.59 48.608 133.536 L 46.976 135.544 C 47.036 135.625 47.226 135.784 47.544 136.024 C 47.863 136.265 48.293 136.509 48.831 136.752 C 49.369 136.995 49.998 137.173 50.716 137.281 C 51.2 137.356 51.683 137.368 52.167 137.323 C 52.651 137.278 53.096 137.161 53.505 136.975 C 53.911 136.788 54.257 136.52 54.533 136.172 C 54.81 135.823 54.99 135.381 55.071 134.847 C 55.134 134.429 55.122 134.04 55.035 133.686 C 54.945 133.331 54.8 133.006 54.596 132.712 C 54.391 132.418 54.142 132.15 53.845 131.916 C 53.547 131.682 53.216 131.468 52.858 131.278 C 52.477 131.077 52.17 130.897 51.944 130.737 C 51.719 130.578 51.56 130.43 51.467 130.292 C 51.374 130.154 51.337 130.007 51.361 129.856 C 51.391 129.637 51.521 129.493 51.74 129.421 C 51.96 129.349 52.23 129.337 52.555 129.385 C 52.807 129.424 53.057 129.508 53.298 129.634 C 53.541 129.76 53.751 129.896 53.932 130.037 C 54.112 130.178 54.236 130.286 54.308 130.364 L 55.889 128.432 C 55.832 128.372 55.663 128.239 55.39 128.041 C 55.116 127.843 54.743 127.635 54.277 127.422 C 53.811 127.208 53.261 127.055 52.63 126.959 L 52.624 126.962 Z M 69.237 126.023 L 70.215 129.787 L 67.335 130.535 L 66.357 126.772 L 63.775 127.442 L 66.321 137.239 L 68.904 136.568 L 67.921 132.784 L 70.801 132.036 L 71.783 135.82 L 74.351 135.153 L 71.805 125.356 L 69.237 126.023 Z M 35.39 120.285 C 34.707 120.156 34.036 120.159 33.378 120.297 C 32.72 120.435 32.106 120.696 31.535 121.084 C 30.964 121.472 30.478 121.975 30.075 122.591 L 30.071 122.591 C 29.666 123.213 29.392 123.856 29.254 124.526 C 29.116 125.196 29.11 125.858 29.236 126.51 C 29.363 127.162 29.621 127.776 30.015 128.353 C 30.408 128.93 30.94 129.435 31.607 129.871 C 32.254 130.295 32.918 130.571 33.604 130.7 C 34.289 130.829 34.959 130.824 35.611 130.68 C 36.264 130.535 36.872 130.268 37.434 129.874 C 37.996 129.48 38.479 128.972 38.885 128.353 C 39.287 127.736 39.555 127.09 39.685 126.414 C 39.814 125.741 39.811 125.073 39.673 124.415 C 39.535 123.757 39.27 123.14 38.882 122.569 C 38.494 121.998 37.983 121.506 37.349 121.091 C 36.724 120.682 36.072 120.414 35.39 120.285 Z M 78.899 121.797 L 78.896 121.794 L 85.076 129.811 L 90.343 125.753 L 88.924 123.913 L 85.771 126.342 L 84.779 125.056 L 87.92 122.636 L 86.55 120.855 L 83.408 123.275 L 82.432 122.007 L 85.585 119.578 L 84.166 117.738 L 78.899 121.797 Z M 34.694 122.768 C 35.142 122.765 35.575 122.9 35.99 123.171 C 36.405 123.441 36.7 123.784 36.877 124.195 C 37.054 124.607 37.118 125.043 37.063 125.503 C 37.012 125.963 36.844 126.408 36.564 126.835 C 36.285 127.262 35.945 127.596 35.542 127.83 C 35.142 128.064 34.718 128.185 34.271 128.185 C 33.823 128.184 33.393 128.049 32.979 127.778 C 32.564 127.508 32.266 127.165 32.089 126.757 C 31.909 126.348 31.848 125.912 31.902 125.449 C 31.956 124.986 32.125 124.541 32.404 124.114 C 32.684 123.688 33.023 123.357 33.423 123.122 C 33.822 122.888 34.247 122.771 34.694 122.768 Z M 15.002 111.344 L 16.424 113.602 L 20.091 111.296 L 17.945 116.024 L 19.635 118.712 L 22.117 112.747 L 22.12 112.747 L 27.982 112.964 L 26.383 110.421 L 21.646 110.321 L 24.994 108.214 L 23.572 105.954 L 15.002 111.344 Z M 94.324 106.537 C 93.78 106.534 93.284 106.672 92.833 106.948 C 92.382 107.225 92.007 107.625 91.706 108.148 L 89.532 111.924 L 89.532 111.927 L 98.305 116.977 L 99.639 114.656 L 96.242 112.702 L 96.309 112.588 L 100.77 112.696 L 102.267 110.099 L 97.475 110.153 C 97.559 109.904 97.591 109.597 97.57 109.233 C 97.549 108.867 97.42 108.487 97.18 108.097 C 96.939 107.706 96.539 107.349 95.98 107.027 C 95.418 106.703 94.868 106.54 94.324 106.537 Z M 93.696 109.345 C 93.967 109.192 94.297 109.224 94.682 109.446 C 95.072 109.672 95.266 109.943 95.269 110.259 C 95.271 110.574 95.187 110.875 95.021 111.163 L 94.661 111.788 L 92.674 110.644 L 93.044 110 C 93.206 109.717 93.426 109.498 93.696 109.345 Z M 81.184 60.576 L 81.184 88.921 L 87.605 88.921 L 87.605 76.529 L 95.159 89.23 L 102.825 89.23 L 93.209 74.275 L 102.87 60.576 L 95.635 60.576 L 87.605 72.171 L 87.605 60.576 L 81.184 60.576 Z M 58.381 60.457 C 52.101 60.457 47.009 65.504 47.009 71.727 L 47.009 77.77 C 47.087 83.878 52.069 88.816 58.234 88.895 L 58.381 88.895 C 64.612 88.895 69.672 83.926 69.754 77.77 L 69.754 71.727 C 69.754 65.549 64.742 60.535 58.528 60.457 L 58.381 60.457 Z M 25.81 60.454 C 19.53 60.454 14.437 65.502 14.437 71.725 L 14.437 77.767 C 14.515 83.875 19.497 88.814 25.662 88.893 L 25.81 88.893 C 32.041 88.892 37.1 83.923 37.182 77.767 L 37.182 72.455 L 25.866 72.455 L 25.866 76.913 L 30.745 76.913 L 30.745 77.623 C 30.745 80.235 28.59 82.456 25.81 82.456 C 23.026 82.456 20.871 80.238 20.87 77.623 L 20.87 71.725 C 20.87 69.112 23.026 66.891 25.81 66.891 C 27.478 66.891 28.941 67.7 29.831 68.92 L 36.229 67.206 C 34.485 63.265 30.531 60.502 25.92 60.457 L 25.924 60.454 L 25.81 60.454 Z M 58.381 66.893 C 61.164 66.893 63.32 69.111 63.32 71.727 L 63.32 77.625 C 63.32 80.24 61.161 82.459 58.381 82.459 C 55.598 82.459 53.443 80.24 53.442 77.625 L 53.442 71.727 C 53.443 69.114 55.597 66.893 58.381 66.893 Z M 98.427 42.287 L 94.33 41.521 L 94.904 42.88 L 97.796 43.394 L 96.158 45.855 L 96.777 47.322 L 99.05 43.757 L 102.6 44.484 L 102.019 43.111 L 99.62 42.678 L 100.976 40.638 L 100.372 39.207 L 98.427 42.287 Z M 17.094 40.635 C 16.895 40.674 16.688 40.734 16.472 40.821 C 16.255 40.905 16.039 41.026 15.829 41.179 C 15.619 41.332 15.42 41.527 15.233 41.771 C 15.047 42.011 14.884 42.306 14.743 42.654 C 14.56 43.108 14.476 43.55 14.485 43.989 C 14.494 44.428 14.587 44.837 14.762 45.222 C 14.936 45.606 15.183 45.946 15.501 46.246 C 15.82 46.544 16.192 46.782 16.619 46.953 C 17.049 47.124 17.482 47.215 17.918 47.221 C 18.354 47.227 18.768 47.151 19.162 46.998 C 19.556 46.842 19.91 46.61 20.22 46.304 C 20.529 45.994 20.776 45.615 20.959 45.164 C 21.136 44.725 21.218 44.293 21.209 43.863 C 21.2 43.437 21.107 43.03 20.936 42.651 C 20.764 42.273 20.521 41.936 20.208 41.642 C 19.895 41.347 19.525 41.113 19.099 40.941 L 18.741 40.797 L 17.513 43.837 L 18.39 44.19 L 19.104 42.42 C 19.309 42.516 19.484 42.645 19.628 42.805 C 19.775 42.967 19.883 43.147 19.955 43.352 C 20.03 43.556 20.061 43.776 20.052 44.007 C 20.043 44.238 19.986 44.479 19.887 44.729 C 19.776 45.002 19.622 45.231 19.424 45.417 C 19.226 45.603 18.997 45.741 18.741 45.828 C 18.486 45.915 18.218 45.958 17.936 45.949 C 17.653 45.943 17.373 45.883 17.094 45.769 C 16.82 45.657 16.577 45.504 16.366 45.314 C 16.156 45.125 15.991 44.908 15.871 44.668 C 15.751 44.428 15.681 44.172 15.666 43.898 C 15.651 43.625 15.697 43.354 15.808 43.081 C 15.955 42.718 16.153 42.441 16.402 42.264 C 16.652 42.086 16.911 41.966 17.182 41.906 L 17.094 40.635 Z M 17.512 43.842 L 17.513 43.837 L 17.509 43.836 L 17.512 43.842 Z M 17.401 37.298 L 22.914 40.679 L 24.823 37.568 L 23.9 37.003 L 22.632 39.071 L 18.042 36.255 L 17.401 37.298 Z M 95.461 32.863 C 95.043 32.782 94.619 32.782 94.189 32.869 C 93.76 32.956 93.348 33.127 92.954 33.386 L 92.957 33.389 C 92.563 33.65 92.239 33.96 91.986 34.314 C 91.734 34.669 91.559 35.054 91.466 35.466 C 91.373 35.878 91.364 36.299 91.442 36.726 C 91.521 37.152 91.692 37.57 91.959 37.976 C 92.223 38.378 92.536 38.697 92.896 38.938 C 93.257 39.175 93.646 39.334 94.063 39.412 C 94.478 39.49 94.902 39.485 95.328 39.395 C 95.755 39.304 96.167 39.13 96.563 38.868 C 96.957 38.61 97.279 38.3 97.528 37.939 C 97.778 37.582 97.95 37.194 98.04 36.779 C 98.13 36.368 98.139 35.946 98.061 35.52 C 97.982 35.093 97.814 34.684 97.556 34.291 C 97.3 33.903 96.991 33.587 96.63 33.347 C 96.266 33.106 95.879 32.944 95.461 32.863 Z M 94.725 34.057 C 95.094 34.018 95.446 34.069 95.773 34.213 C 96.104 34.354 96.377 34.591 96.594 34.922 C 96.813 35.249 96.922 35.598 96.925 35.956 C 96.928 36.313 96.837 36.656 96.654 36.98 C 96.471 37.305 96.206 37.582 95.863 37.808 C 95.521 38.033 95.16 38.165 94.79 38.207 C 94.421 38.249 94.069 38.195 93.741 38.051 C 93.414 37.907 93.14 37.669 92.924 37.339 C 92.707 37.008 92.594 36.665 92.594 36.308 C 92.591 35.947 92.681 35.607 92.864 35.279 C 93.048 34.952 93.312 34.676 93.654 34.45 L 93.651 34.453 C 93.997 34.228 94.352 34.096 94.725 34.057 Z M 24.961 28.44 C 24.54 28.467 24.131 28.576 23.743 28.766 C 23.353 28.958 23.004 29.231 22.697 29.586 C 22.394 29.938 22.174 30.32 22.042 30.734 C 21.907 31.149 21.859 31.567 21.896 31.99 C 21.932 32.414 22.049 32.82 22.25 33.211 C 22.448 33.601 22.728 33.95 23.082 34.257 L 23.092 34.257 C 23.449 34.566 23.834 34.792 24.245 34.939 C 24.657 35.087 25.075 35.146 25.496 35.125 C 25.917 35.101 26.322 34.996 26.713 34.804 C 27.101 34.614 27.456 34.331 27.774 33.965 C 28.087 33.601 28.309 33.213 28.441 32.802 C 28.574 32.387 28.619 31.969 28.58 31.549 C 28.541 31.125 28.417 30.722 28.216 30.334 C 28.015 29.947 27.732 29.598 27.375 29.288 C 27.017 28.982 26.632 28.757 26.218 28.615 C 25.803 28.474 25.385 28.416 24.961 28.44 Z M 24.468 29.736 C 24.813 29.637 25.169 29.631 25.529 29.718 C 25.89 29.805 26.227 29.985 26.539 30.253 C 26.852 30.52 27.077 30.83 27.218 31.176 C 27.359 31.521 27.405 31.873 27.354 32.228 C 27.302 32.585 27.149 32.91 26.891 33.211 C 26.632 33.508 26.332 33.709 25.989 33.809 C 25.647 33.908 25.291 33.914 24.928 33.827 C 24.564 33.74 24.228 33.559 23.915 33.292 L 23.915 33.295 C 23.603 33.027 23.377 32.718 23.238 32.372 C 23.103 32.027 23.056 31.678 23.104 31.32 C 23.152 30.963 23.305 30.634 23.563 30.337 C 23.819 30.037 24.122 29.836 24.468 29.736 Z M 90.65 26.145 L 85.962 30.6 L 87.191 31.892 C 87.666 32.39 88.159 32.707 88.67 32.842 C 89.181 32.977 89.689 32.955 90.193 32.781 C 90.698 32.607 91.18 32.3 91.637 31.867 C 92.093 31.438 92.418 30.971 92.619 30.476 C 92.817 29.98 92.863 29.472 92.755 28.958 C 92.647 28.441 92.355 27.933 91.88 27.435 L 90.65 26.142 L 90.65 26.145 Z M 90.695 27.779 L 91.012 28.113 C 91.3 28.417 91.474 28.736 91.528 29.063 C 91.582 29.391 91.537 29.716 91.396 30.034 C 91.254 30.356 91.032 30.653 90.731 30.936 C 90.437 31.215 90.124 31.42 89.797 31.543 C 89.469 31.666 89.145 31.693 88.823 31.624 C 88.502 31.552 88.198 31.365 87.906 31.059 L 87.591 30.726 L 90.695 27.776 L 90.695 27.779 Z M 30.349 23.366 C 30.054 23.312 29.753 23.346 29.449 23.469 C 29.146 23.592 28.852 23.769 28.572 23.997 L 26.98 25.297 L 31.072 30.304 L 32.9 28.81 C 33.249 28.524 33.49 28.229 33.625 27.917 C 33.76 27.605 33.799 27.295 33.745 26.982 C 33.691 26.673 33.549 26.375 33.321 26.099 C 33.159 25.897 32.984 25.75 32.801 25.65 C 32.615 25.551 32.431 25.495 32.251 25.479 C 32.068 25.464 31.897 25.477 31.731 25.519 C 31.566 25.561 31.421 25.62 31.298 25.701 C 31.409 25.563 31.484 25.395 31.521 25.193 C 31.559 24.992 31.55 24.779 31.496 24.554 C 31.445 24.328 31.334 24.112 31.166 23.907 C 30.917 23.601 30.643 23.42 30.349 23.366 Z M 31.638 26.498 C 31.875 26.501 32.085 26.616 32.269 26.838 C 32.383 26.976 32.458 27.12 32.497 27.271 C 32.536 27.421 32.524 27.574 32.461 27.73 C 32.398 27.887 32.272 28.046 32.08 28.202 L 31.395 28.765 L 31.392 28.768 L 30.234 27.352 L 30.89 26.813 C 31.151 26.6 31.4 26.498 31.638 26.498 Z M 84.827 21.646 C 84.406 21.547 83.982 21.532 83.564 21.602 C 83.144 21.674 82.747 21.824 82.374 22.053 C 82.001 22.281 81.677 22.588 81.397 22.967 L 81.397 22.964 C 81.118 23.345 80.923 23.748 80.809 24.169 C 80.694 24.593 80.668 25.011 80.722 25.432 C 80.776 25.852 80.914 26.249 81.136 26.621 C 81.358 26.994 81.665 27.325 82.059 27.613 C 82.446 27.899 82.853 28.088 83.273 28.188 C 83.694 28.287 84.115 28.302 84.532 28.227 C 84.95 28.151 85.344 28.001 85.714 27.767 C 86.083 27.532 86.408 27.225 86.688 26.844 C 86.964 26.465 87.159 26.062 87.268 25.639 C 87.376 25.215 87.4 24.791 87.343 24.373 C 87.286 23.955 87.144 23.558 86.925 23.186 C 86.702 22.813 86.402 22.488 86.023 22.209 C 85.648 21.932 85.251 21.746 84.827 21.646 Z M 84.331 22.756 C 84.689 22.774 85.028 22.9 85.347 23.135 C 85.665 23.369 85.891 23.655 86.018 23.991 C 86.144 24.325 86.179 24.68 86.119 25.047 C 86.059 25.413 85.909 25.765 85.666 26.096 C 85.423 26.429 85.133 26.678 84.8 26.847 C 84.466 27.015 84.117 27.087 83.76 27.066 C 83.402 27.042 83.063 26.916 82.744 26.682 C 82.426 26.45 82.2 26.164 82.074 25.831 C 81.948 25.494 81.912 25.142 81.972 24.772 C 82.032 24.403 82.182 24.051 82.426 23.721 C 82.669 23.39 82.955 23.141 83.291 22.976 C 83.628 22.81 83.973 22.735 84.331 22.756 Z M 34.351 19.925 L 34.348 19.925 L 35.42 26.774 L 36.554 26.119 L 36.301 24.652 L 38.54 23.357 L 39.677 24.313 L 40.804 23.661 L 35.414 19.309 L 34.351 19.925 Z M 29.759 24.523 C 29.969 24.502 30.171 24.607 30.366 24.845 C 30.468 24.968 30.534 25.107 30.567 25.254 C 30.597 25.404 30.589 25.551 30.538 25.695 C 30.487 25.842 30.382 25.978 30.226 26.107 L 29.621 26.601 L 29.624 26.595 L 28.554 25.287 L 29.092 24.848 C 29.326 24.655 29.549 24.548 29.759 24.523 Z M 73.495 22.632 L 74.589 23.158 L 75.761 20.721 L 78.075 21.833 L 78.072 21.836 L 76.9 24.273 L 77.994 24.799 L 80.799 18.971 L 79.704 18.445 L 78.541 20.864 L 76.227 19.75 L 77.394 17.33 L 76.299 16.804 L 73.495 22.632 Z M 37.65 22.621 L 36.105 23.514 L 36.108 23.511 L 35.615 20.898 L 35.628 20.893 L 37.65 22.621 Z M 39.784 17.106 L 42.109 23.141 L 45.515 21.827 L 45.124 20.816 L 42.861 21.688 L 40.925 16.666 L 39.784 17.106 Z M 69.229 15.644 L 70.782 16.109 L 70.785 16.106 L 69.243 21.265 L 70.415 21.616 L 71.957 16.458 L 73.505 16.921 L 73.814 15.885 L 69.538 14.607 L 69.229 15.644 Z M 62.786 13.47 L 61.854 19.869 L 63.063 20.043 L 63.441 17.44 L 64.058 17.53 L 65.098 20.341 L 66.465 20.539 L 65.287 17.614 C 65.47 17.62 65.671 17.576 65.899 17.477 C 66.125 17.377 66.333 17.209 66.52 16.975 C 66.706 16.74 66.829 16.421 66.886 16.021 C 66.946 15.616 66.912 15.258 66.783 14.948 C 66.654 14.639 66.456 14.387 66.191 14.194 C 65.927 14.002 65.612 13.881 65.251 13.827 L 62.789 13.47 L 62.786 13.47 Z M 56.752 13.227 C 56.289 13.242 55.86 13.338 55.466 13.521 C 55.069 13.705 54.729 13.951 54.44 14.264 C 54.152 14.576 53.933 14.937 53.779 15.349 C 53.626 15.76 53.557 16.202 53.572 16.671 L 53.572 16.674 C 53.584 17.149 53.677 17.585 53.849 17.987 C 54.02 18.387 54.257 18.736 54.558 19.033 C 54.861 19.328 55.213 19.557 55.619 19.713 C 56.025 19.869 56.47 19.942 56.957 19.927 C 57.438 19.912 57.873 19.815 58.267 19.632 C 58.66 19.449 58.998 19.199 59.283 18.887 C 59.569 18.574 59.785 18.21 59.933 17.798 C 60.08 17.386 60.146 16.941 60.131 16.47 C 60.116 16.001 60.019 15.562 59.845 15.162 C 59.667 14.763 59.427 14.414 59.124 14.119 C 58.82 13.825 58.465 13.596 58.063 13.439 C 57.66 13.283 57.221 13.212 56.752 13.227 Z M 56.785 14.372 C 57.182 14.36 57.533 14.447 57.84 14.633 C 58.146 14.819 58.39 15.078 58.57 15.402 C 58.751 15.73 58.847 16.097 58.859 16.509 C 58.874 16.92 58.799 17.296 58.64 17.633 C 58.48 17.969 58.252 18.24 57.957 18.444 C 57.66 18.648 57.314 18.757 56.921 18.77 C 56.527 18.782 56.175 18.697 55.868 18.511 C 55.565 18.324 55.318 18.069 55.138 17.741 C 54.957 17.414 54.859 17.043 54.847 16.632 L 54.847 16.476 C 54.855 16.124 54.93 15.802 55.069 15.508 C 55.229 15.171 55.457 14.901 55.751 14.696 C 56.046 14.492 56.391 14.384 56.785 14.372 Z M 64.688 14.738 C 64.992 14.783 65.238 14.895 65.431 15.072 C 65.623 15.25 65.693 15.52 65.642 15.877 C 65.59 16.234 65.446 16.475 65.209 16.596 C 64.972 16.716 64.697 16.755 64.391 16.71 L 63.567 16.59 L 63.856 14.618 L 64.688 14.738 Z" fill="currentColor" fill-rule="nonzero"></path>
</svg>